<svg id="Layer_1" data-name="Layer 1" xmlns="http://www.w3.org/2000/svg" xmlns:xlink="http://www.w3.org/1999/xlink" viewBox="0 0 313 320"><defs><style>.cls-1{fill:#3b5996;}.cls-2{fill:url(#linear-gradient);}.cls-3,.cls-4,.cls-8{fill:#fff;}.cls-3{opacity:0.08;}.cls-4{opacity:0.04;}.cls-5{fill:url(#linear-gradient-2);}.cls-6{fill:#00d9ea;}.cls-7{opacity:0.44;}</style><linearGradient id="linear-gradient" y1="156.5" x2="313" y2="156.5" gradientUnits="userSpaceOnUse"><stop offset="0" stop-color="#3b5996"/><stop offset="1" stop-color="#4c72cf"/></linearGradient><linearGradient id="linear-gradient-2" x1="277.37" y1="112.41" x2="183.37" y2="263.08" gradientUnits="userSpaceOnUse"><stop offset="0" stop-color="#00d9ea"/><stop offset="1" stop-color="#12acaf"/></linearGradient></defs><title>logo</title><rect class="cls-1" y="7" width="313" height="313" rx="84.5" ry="84.5"/><rect class="cls-2" width="313" height="313" rx="84.5" ry="84.5"/><path class="cls-3" d="M43.29,124V268a84.75,84.75,0,0,0,84.5,84.5h77.5L58.68,75.57A83.83,83.83,0,0,0,43.29,124Z" transform="translate(-43.29 -39.5)"/><path class="cls-4" d="M58.68,75.57,205.29,352.5h49L103.67,43.05A85,85,0,0,0,58.68,75.57Z" transform="translate(-43.29 -39.5)"/><path class="cls-4" d="M356.29,268V246.67L296.07,43.09a84,84,0,0,0-24.28-3.59h-70l86.12,311.43C326.75,343.34,356.29,309,356.29,268Z" transform="translate(-43.29 -39.5)"/><path class="cls-5" d="M279.5,148.88,204.05,273.07a22,22,0,0,1-30.21,7.26h0a22,22,0,0,1-7.26-30.21L242,125.93a22,22,0,0,1,30.21-7.26h0A22,22,0,0,1,279.5,148.88Z" transform="translate(-43.29 -39.5)"/><rect class="cls-6" x="140.06" y="170.77" width="44.04" height="120.53" rx="22.02" ry="22.02" transform="translate(-150.22 106.23) rotate(-37.35)"/><g class="cls-7"><path class="cls-8" d="M171.81,274.84,125.34,214a22,22,0,0,1,4.13-30.79l.08-.06a21.86,21.86,0,0,1,11.32-4.39,21.89,21.89,0,0,0-15.31,4.39l-.08.06A22,22,0,0,0,121.34,214l46.48,60.89a22,22,0,0,0,19.48,8.52A21.92,21.92,0,0,1,171.81,274.84Z" transform="translate(-43.29 -39.5)"/></g><path class="cls-6" d="M202.2,247.3s9.11,9.09,16.81,1.14l-14,22.72Z" transform="translate(-43.29 -39.5)"/></svg>